<?xml version="1.0" encoding="UTF-8" standalone="no"?>
<!DOCTYPE svg PUBLIC "-//W3C//DTD SVG 1.1//EN" "http://www.w3.org/Graphics/SVG/1.1/DTD/svg11.dtd">
<svg version="1.1" xmlns="http://www.w3.org/2000/svg" xmlns:xlink="http://www.w3.org/1999/xlink" preserveAspectRatio="xMidYMid meet" viewBox="-1.000462811638556 116.06786965168014 644.0004628116385 409.86636452284716" width="640" height="405.87"><defs><path d="M601.31 242.63C601.31 258.1 601.31 381.9 601.31 397.37C601.31 408.06 609.97 416.72 620.66 416.72C631.34 416.72 640 408.06 640 397.37C640 381.9 640 258.1 640 242.63C640 231.94 631.34 223.28 620.66 223.28C609.97 223.28 601.31 231.94 601.31 242.63Z" id="a1BFoLTjZB"></path><path d="M543.28 242.44C543.28 257.92 543.28 381.72 543.28 397.19C543.28 407.87 551.94 416.53 562.63 416.53C573.31 416.53 581.97 407.87 581.97 397.19C581.97 381.72 581.97 257.92 581.97 242.44C581.97 231.76 573.31 223.1 562.63 223.1C551.94 223.1 543.28 231.76 543.28 242.44Z" id="ffGFF6A5l"></path><path d="M448.53 223.12C448.19 223.11 447.86 223.1 447.53 223.1C431.99 223.1 354.3 223.1 214.44 223.1C214.44 170.87 214.44 141.85 214.44 136.05C215.31 126.48 208.25 118.01 198.68 117.14C193.37 116.66 188.13 118.64 184.46 122.51C166.57 140.89 23.42 287.9 5.53 306.28C-1.84 313.8 -1.84 325.83 5.53 333.36C23.62 351.73 168.31 498.75 186.39 517.12C189.82 520.96 194.78 523.09 199.93 522.93C200.42 522.93 204.28 522.93 204.77 522.93C211.85 519.26 215.75 511.45 214.44 503.58C214.44 497.78 214.44 468.76 214.44 416.54C354.29 416.54 431.99 416.54 447.53 416.54C457.68 416.55 465.92 408.34 465.93 398.18C465.93 397.85 465.92 397.52 465.91 397.19C465.91 386.88 465.91 335.29 465.91 242.44C461.07 229.92 455.28 223.48 448.53 223.12ZM199.93 377.85C189.29 377.85 175.75 386.55 175.75 397.19C175.75 401.12 175.75 420.79 175.75 456.19L42.28 319.82L175.75 183.44C175.75 218.84 175.75 238.51 175.75 242.44C175.75 253.08 189.29 261.78 199.93 261.78C215.09 261.78 290.85 261.78 427.22 261.78L427.22 377.85C290.85 377.85 215.09 377.85 199.93 377.85Z" id="d2sllWaHaA"></path><path d="M485.25 242.44C485.25 257.92 485.25 381.72 485.25 397.19C485.25 407.87 493.91 416.53 504.6 416.53C515.28 416.53 523.94 407.87 523.94 397.19C523.94 381.72 523.94 257.92 523.94 242.44C523.94 231.76 515.28 223.1 504.6 223.1C493.91 223.1 485.25 231.76 485.25 242.44Z" id="e4D3jHr7Qi"></path></defs><g><g><use xlink:href="#a1BFoLTjZB" opacity="1" fill="#ffffff" fill-opacity="1"></use><g><use xlink:href="#a1BFoLTjZB" opacity="1" fill-opacity="0" stroke="#000000" stroke-width="1" stroke-opacity="0"></use></g></g><g><use xlink:href="#ffGFF6A5l" opacity="1" fill="#ffffff" fill-opacity="1"></use><g><use xlink:href="#ffGFF6A5l" opacity="1" fill-opacity="0" stroke="#000000" stroke-width="1" stroke-opacity="0"></use></g></g><g><use xlink:href="#d2sllWaHaA" opacity="1" fill="#ffffff" fill-opacity="1"></use><g><use xlink:href="#d2sllWaHaA" opacity="1" fill-opacity="0" stroke="#000000" stroke-width="1" stroke-opacity="0"></use></g></g><g><use xlink:href="#e4D3jHr7Qi" opacity="1" fill="#ffffff" fill-opacity="1"></use><g><use xlink:href="#e4D3jHr7Qi" opacity="1" fill-opacity="0" stroke="#000000" stroke-width="1" stroke-opacity="0"></use></g></g></g></svg>