<?xml version="1.0" encoding="UTF-8" standalone="no"?>
<!DOCTYPE svg PUBLIC "-//W3C//DTD SVG 1.1//EN" "http://www.w3.org/Graphics/SVG/1.1/DTD/svg11.dtd">
<svg version="1.1" xmlns="http://www.w3.org/2000/svg" xmlns:xlink="http://www.w3.org/1999/xlink" preserveAspectRatio="xMidYMid meet" viewBox="-0.9998004052911043 16.500375807492535 643.9991665644973 609.6109978664966" width="640" height="605.61"><defs><path d="M182.93 598.11C196.51 621.66 227.07 630.38 251.24 616.41C275.15 602.59 283.36 572.04 269.53 548.11C267.03 543.78 254.53 522.13 232.03 483.15C251.52 471.9 262.34 465.65 264.51 464.4C270.48 460.94 272.53 453.3 269.08 447.32C267.46 444.51 254.45 421.99 252.83 419.17C254.77 418.79 267.51 416.29 492.25 372.21C520.03 370.7 536.68 340.31 522.65 316.02C519.88 311.22 506.03 287.24 481.1 244.07C497.03 219.94 505.88 206.54 507.65 203.86C510.26 199.9 510.42 194.82 508.05 190.72C505.55 186.39 485.55 151.75 483.05 147.42C480.68 143.32 476.18 140.91 471.47 141.19C468.26 141.38 452.23 142.35 423.38 144.08C395.71 96.15 380.34 69.52 377.26 64.19C370.58 52.62 358.61 45.62 345.25 45.45C345.09 45.44 344.94 45.44 344.78 45.44C331.87 45.44 320.15 51.87 313.2 62.73C302.32 76.6 247.89 145.94 149.91 270.75C86.22 307.53 50.83 327.96 43.75 332.04C2 356.14 -12.46 409.7 11.73 451.57C33.83 489.85 80.42 504.91 119.98 489.07C132.57 510.87 176.63 587.2 182.93 598.11ZM238.73 594.76C226.71 601.71 211.41 597.44 204.58 585.61C200.41 578.39 179.58 542.3 142.08 477.34C168.06 462.34 182.49 454.01 185.38 452.34C257.71 577.65 246.72 558.61 247.89 560.62C254.79 572.56 250.7 587.84 238.73 594.76ZM219.53 461.49L207.03 439.84L228.68 427.34L241.18 448.99L219.53 461.49ZM465.26 166.61L482.53 196.53L467.13 219.86L437.35 168.28L465.26 166.61ZM344.95 70.44C347.08 70.47 352.4 71.13 355.61 76.69C370.14 101.87 486.46 303.34 501 328.52C505.73 336.72 499.98 347.03 490.48 347.26C488.77 347.3 487.99 347.61 483.62 348.42C468.24 321.78 345.21 108.68 329.83 82.04C333.06 77.89 333.47 77.49 334.11 76.44C337.47 70.95 342.79 70.39 344.95 70.44ZM313.19 103.23L457.69 353.51L239.61 396.28L173.31 281.44L313.19 103.23ZM24.99 407.88C24.99 385.59 36.97 364.82 56.25 353.69C62.75 349.94 95.23 331.19 153.68 297.44L216.18 405.69C157.73 439.45 125.25 458.2 118.75 461.95C88.91 479.17 50.61 468.91 33.38 439.07C27.89 429.57 24.99 418.79 24.99 407.88Z" id="b2Eg3AzkSn"></path><path d="M479.79 75.07C478.01 81.74 481.96 88.59 488.63 90.38C495.3 92.16 502.15 88.22 503.95 81.54C505.24 76.71 515.6 38.07 516.89 33.24C518.68 26.57 514.73 19.72 508.06 17.93C501.39 16.14 494.54 20.1 492.75 26.77C490.16 36.43 481.09 70.24 479.79 75.07Z" id="a15UKem9MQ"></path><path d="M551.77 110.94C545.74 114.3 543.56 121.91 546.92 127.94C550.27 133.97 557.88 136.15 563.93 132.79C570.89 128.91 626.61 97.9 633.57 94.03C639.61 90.67 641.78 83.06 638.42 77.03C635.06 70.99 627.45 68.82 621.42 72.18C607.49 79.93 558.73 107.07 551.77 110.94Z" id="ftAGEgsLk"></path><path d="M565.82 188.71C559.15 186.92 552.29 190.87 550.51 197.54C548.72 204.21 552.68 211.06 559.35 212.85C564.18 214.15 602.82 224.5 607.65 225.79C614.36 227.59 621.18 223.57 622.96 216.95C624.75 210.28 620.79 203.43 614.12 201.65C604.46 199.06 570.65 190 565.82 188.71Z" id="af9Ci3xlK"></path><path d="M175.78 385.72C172.33 379.75 164.68 377.7 158.71 381.14C152.73 384.59 150.68 392.25 154.13 398.22C157.58 404.19 165.23 406.25 171.21 402.79C177.18 399.35 179.23 391.69 175.78 385.72Z" id="bg278HPOR"></path><path d="M115.41 406.14C113.24 407.39 95.92 417.39 93.75 418.64C87.79 422.09 80.13 420.03 76.68 414.07C73.23 408.09 65.58 406.04 59.6 409.49C53.63 412.94 51.58 420.59 55.03 426.57C65.32 444.39 88.27 450.67 106.25 440.29C108.42 439.04 125.74 429.04 127.91 427.79C133.88 424.34 135.93 416.7 132.48 410.72C129.03 404.74 121.38 402.69 115.41 406.14Z" id="b7XwYaQpa"></path></defs><g><g><use xlink:href="#b2Eg3AzkSn" opacity="1" fill="#ffffff" fill-opacity="1"></use><g><use xlink:href="#b2Eg3AzkSn" opacity="1" fill-opacity="0" stroke="#000000" stroke-width="1" stroke-opacity="0"></use></g></g><g><use xlink:href="#a15UKem9MQ" opacity="1" fill="#ffffff" fill-opacity="1"></use><g><use xlink:href="#a15UKem9MQ" opacity="1" fill-opacity="0" stroke="#000000" stroke-width="1" stroke-opacity="0"></use></g></g><g><use xlink:href="#ftAGEgsLk" opacity="1" fill="#ffffff" fill-opacity="1"></use><g><use xlink:href="#ftAGEgsLk" opacity="1" fill-opacity="0" stroke="#000000" stroke-width="1" stroke-opacity="0"></use></g></g><g><use xlink:href="#af9Ci3xlK" opacity="1" fill="#ffffff" fill-opacity="1"></use><g><use xlink:href="#af9Ci3xlK" opacity="1" fill-opacity="0" stroke="#000000" stroke-width="1" stroke-opacity="0"></use></g></g><g><use xlink:href="#bg278HPOR" opacity="1" fill="#ffffff" fill-opacity="1"></use><g><use xlink:href="#bg278HPOR" opacity="1" fill-opacity="0" stroke="#000000" stroke-width="1" stroke-opacity="0"></use></g></g><g><use xlink:href="#b7XwYaQpa" opacity="1" fill="#ffffff" fill-opacity="1"></use><g><use xlink:href="#b7XwYaQpa" opacity="1" fill-opacity="0" stroke="#000000" stroke-width="1" stroke-opacity="0"></use></g></g></g></svg>