<?xml version="1.0" encoding="iso-8859-1"?>
<!-- Generator: Adobe Illustrator 19.0.0, SVG Export Plug-In . SVG Version: 6.00 Build 0)  -->
<svg version="1.1" id="Capa_1" xmlns="http://www.w3.org/2000/svg" xmlns:xlink="http://www.w3.org/1999/xlink" x="0px" y="0px"
	 viewBox="0 0 512 512" style="enable-background:new 0 0 512 512;" xml:space="preserve">
<circle style="fill:#FFD93B;" cx="256" cy="256" r="256"/>
<g>
	<path style="fill:#F4C534;" d="M512,256c0,141.44-114.64,256-256,256c-80.48,0-152.32-37.12-199.28-95.28
		c43.92,35.52,99.84,56.72,160.72,56.72c141.36,0,256-114.56,256-256c0-60.88-21.2-116.8-56.72-160.72
		C474.8,103.68,512,175.52,512,256z"/>
	<path style="fill:#F4C534;" d="M272.448,232.272c-16.56,43.744,10.704,94.592,60.912,113.616
		c50.08,18.96,104.192-1.056,120.752-44.8c16.512-43.632-10.736-94.48-60.832-113.44C343.072,168.608,288.96,188.64,272.448,232.272
		z"/>
</g>
<circle style="fill:#FFFFFF;" cx="351.728" cy="261.888" r="68.224"/>
<path style="fill:#3E4347;" d="M376.464,266.176c0.128,22.256-17.808,40.192-40.064,40.064c-22.128,0-40.192-17.808-40.192-40.064
	s18.064-40.064,40.192-40.064C358.656,225.968,376.464,244.032,376.464,266.176z"/>
<ellipse transform="matrix(-0.7071 -0.7071 0.7071 -0.7071 419.7921 678.2657)" style="fill:#FFFFFF;" cx="350.369" cy="252.191" rx="10.944" ry="7.44"/>
<path style="fill:#F4C534;" d="M239.552,232.272c16.56,43.744-10.704,94.592-60.912,113.616
	c-50.08,18.96-104.192-1.056-120.752-44.8c-16.528-43.632,10.736-94.48,60.816-113.44
	C168.928,168.608,223.04,188.64,239.552,232.272z"/>
<circle style="fill:#FFFFFF;" cx="160.32" cy="261.888" r="68.224"/>
<path style="fill:#3E4347;" d="M215.792,266.176c0.128,22.256-17.808,40.192-40.064,40.064c-22.144,0-40.192-17.808-40.192-40.064
	s18.064-40.064,40.192-40.064C197.984,225.968,215.792,244.032,215.792,266.176z"/>
<ellipse transform="matrix(-0.7071 -0.7071 0.7071 -0.7071 145.4809 564.6646)" style="fill:#FFFFFF;" cx="189.686" cy="252.202" rx="10.944" ry="7.44"/>
<g>
	<path style="fill:#3E4347;" d="M427.28,127.84c-36.944,21.376-114.896,55.952-145.472-10.384c-1.472-3.2,2.224-6.288,5.12-4.352
		c17.216,11.184,58.288,27.712,137.648,8.256C428.576,120.384,430.816,125.712,427.28,127.84z"/>
	<path style="fill:#3E4347;" d="M82.624,149.088c42.384,5.648,127.744,7.856,130.416-65.184c0.128-3.52-4.48-4.96-6.416-2.064
		c-11.584,16.912-43.184,47.904-124.016,60.224C78.544,142.688,78.528,148.48,82.624,149.088z"/>
	<path style="fill:#3E4347;" d="M363.264,444.416c-4.656-14.848-21.488-35.104-68.912-50.912
		c-24.304-9.312-74.656-18.704-88.688-22.24c20.56-5.12,61.584-18.88,97.92-6.448C336.928,377.792,363.264,407.088,363.264,444.416z
		"/>
</g>
<g>
</g>
<g>
</g>
<g>
</g>
<g>
</g>
<g>
</g>
<g>
</g>
<g>
</g>
<g>
</g>
<g>
</g>
<g>
</g>
<g>
</g>
<g>
</g>
<g>
</g>
<g>
</g>
<g>
</g>
</svg>
