<?xml version="1.0" encoding="UTF-8" standalone="no"?>
<!DOCTYPE svg PUBLIC "-//W3C//DTD SVG 1.1//EN" "http://www.w3.org/Graphics/SVG/1.1/DTD/svg11.dtd">
<svg version="1.1" xmlns="http://www.w3.org/2000/svg" xmlns:xlink="http://www.w3.org/1999/xlink" preserveAspectRatio="xMidYMid meet" viewBox="-1 -1 644 644" width="640" height="640"><defs><path d="M375 250C375 256.9 380.6 262.5 387.5 262.5C394.4 262.5 400 256.9 400 250C400 243.1 394.4 237.5 387.5 237.5C380.6 237.5 375 243.1 375 250Z" id="bpgbaW6Xu"></path><path d="M458.5 387.8C485.68 346.86 500 299.44 500 250C500 112.15 387.85 0 250 0C112.15 0 0 112.15 0 250C0 387.85 112.15 500 250 500C299.45 500 346.86 485.68 387.8 458.5C392.41 463.11 429.31 500.01 433.92 504.62C433.92 504.63 433.93 504.63 433.94 504.64C446.01 516.71 542.58 613.28 554.65 625.35C564.1 634.8 576.65 640 590 640C603.35 640 615.91 634.8 625.35 625.36C634.8 615.91 640 603.36 640 590C640 576.64 634.8 564.09 625.35 554.65C591.98 521.28 475.19 404.48 458.5 387.8ZM381.92 432.16C343.33 460.19 297.72 475 250 475C125.94 475 25 374.07 25 250C25 125.93 125.94 25 250 25C374.07 25 475 125.94 475 250C475 297.72 460.19 343.33 432.16 381.92C418.14 401.24 401.24 418.14 381.92 432.16C381.92 432.16 381.92 432.16 381.92 432.16ZM443.49 408.15C447.04 411.69 475.41 440.06 478.96 443.61C468.17 456.34 456.34 468.17 443.61 478.96C441.24 476.59 429.42 464.77 408.15 443.49C424.65 428.55 436.44 416.77 443.49 408.15ZM590 615C583.33 615 577.05 612.4 572.33 607.67C561.23 596.57 472.43 507.78 461.33 496.68C473.99 485.82 485.82 473.99 496.68 461.33C507.78 472.43 596.58 561.23 607.68 572.33C612.4 577.05 615 583.32 615 590C615 596.68 612.4 602.95 607.67 607.67C602.95 612.4 596.67 615 590 615Z" id="b1b9BrC7xB"></path><path d="M50 250C50 360.28 139.72 450 250 450C360.28 450 450 360.28 450 250C450 139.72 360.28 50 250 50C139.72 50 50 139.72 50 250ZM75 250C75 153.5 153.51 75 250 75C346.5 75 425 153.51 425 250C425 346.5 346.5 425 250 425C153.51 425 75 346.5 75 250Z" id="d2o8xwV9cv"></path><path d="M335.88 127.08C310.6 109.36 280.9 100 250 100C243.1 100 237.5 105.6 237.5 112.5C237.5 119.4 243.1 125 250 125C301.37 125 348.29 157.27 366.75 205.31C368.66 210.28 373.39 213.33 378.42 213.33C379.91 213.33 381.42 213.06 382.9 212.49C389.34 210.02 392.56 202.79 390.08 196.34C379.32 168.33 360.58 144.37 335.88 127.08Z" id="e9iuEw7w3"></path></defs><g><g><use xlink:href="#bpgbaW6Xu" opacity="1" fill="#ffffff" fill-opacity="1"></use><g><use xlink:href="#bpgbaW6Xu" opacity="1" fill-opacity="0" stroke="#000000" stroke-width="1" stroke-opacity="0"></use></g></g><g><use xlink:href="#b1b9BrC7xB" opacity="1" fill="#ffffff" fill-opacity="1"></use><g><use xlink:href="#b1b9BrC7xB" opacity="1" fill-opacity="0" stroke="#000000" stroke-width="1" stroke-opacity="0"></use></g></g><g><use xlink:href="#d2o8xwV9cv" opacity="1" fill="#ffffff" fill-opacity="1"></use><g><use xlink:href="#d2o8xwV9cv" opacity="1" fill-opacity="0" stroke="#000000" stroke-width="1" stroke-opacity="0"></use></g></g><g><use xlink:href="#e9iuEw7w3" opacity="1" fill="#ffffff" fill-opacity="1"></use><g><use xlink:href="#e9iuEw7w3" opacity="1" fill-opacity="0" stroke="#000000" stroke-width="1" stroke-opacity="0"></use></g></g></g></svg>