<?xml version="1.0" encoding="UTF-8" standalone="no"?>
<!DOCTYPE svg PUBLIC "-//W3C//DTD SVG 1.1//EN" "http://www.w3.org/Graphics/SVG/1.1/DTD/svg11.dtd">
<svg version="1.1" xmlns="http://www.w3.org/2000/svg" xmlns:xlink="http://www.w3.org/1999/xlink" preserveAspectRatio="xMidYMid meet" viewBox="-0.9815601894895294 27.84349404524726 643.9628316509497 586.3130119095055" width="639.96" height="582.31"><defs><path d="M320 450.92C306.65 450.92 295.82 461.75 295.82 475.1C295.82 488.46 306.65 499.28 320 499.28C333.35 499.28 344.18 488.46 344.18 475.1C344.18 461.75 333.35 450.92 320 450.92Z" id="b1i5bLLa3S"></path><path d="M293.82 407.65C295.83 419.74 305.91 429.81 320.01 429.81C320.01 429.81 320.01 429.81 320.01 429.81C332.1 429.81 344.19 419.74 346.21 407.65C347.82 396.97 360.72 311.54 362.33 300.86C366.36 274.66 346.21 252.5 320.01 252.5C320.01 252.5 320.01 252.5 320.01 252.5C293.82 252.5 275.68 274.66 277.7 300.86C280.92 322.22 292.21 396.97 293.82 407.65Z" id="c25swhqwl7"></path><path d="M326.2 29.15L329.27 29.52L332.33 30.05L335.35 30.73L338.34 31.56L341.29 32.55L344.18 33.68L347.02 34.96L349.8 36.4L352.5 37.99L355.12 39.72L357.66 41.61L360.1 43.65L362.44 45.84L364.68 48.19L366.8 50.68L368.8 53.32L370.67 56.12L372.4 59.07L632.33 520.48L633.9 523.52L635.28 526.58L636.48 529.66L637.5 532.76L638.34 535.87L639 538.98L639.5 542.09L639.82 545.2L639.98 548.29L639.98 551.37L639.81 554.43L639.49 557.46L639.01 560.46L638.38 563.43L637.6 566.35L636.68 569.23L635.61 572.06L634.4 574.83L633.05 577.54L631.57 580.18L629.96 582.75L628.21 585.24L626.34 587.65L624.35 589.98L622.23 592.21L620 594.34L617.65 596.37L615.19 598.3L612.62 600.11L609.94 601.81L607.16 603.38L604.28 604.82L601.3 606.13L598.22 607.31L595.05 608.33L591.8 609.22L588.45 609.94L585.02 610.51L581.51 610.92L577.92 611.16L60.09 611.16L56.65 611.06L53.28 610.79L49.98 610.33L46.76 609.71L43.62 608.91L40.57 607.96L37.6 606.85L34.72 605.6L31.93 604.19L29.23 602.66L26.64 600.99L24.15 599.19L21.76 597.27L19.47 595.24L17.3 593.09L15.24 590.85L13.3 588.5L11.48 586.06L9.78 583.54L8.2 580.93L6.76 578.25L5.44 575.5L4.26 572.68L3.22 569.81L2.32 566.88L1.56 563.91L0.95 560.89L0.48 557.84L0.17 554.76L0.02 551.65L0.02 548.53L0.19 545.39L0.52 542.24L1.02 539.1L1.69 535.95L2.53 532.82L3.55 529.7L4.75 526.6L6.13 523.53L7.7 520.48L267.62 59.07L269.36 56.12L271.23 53.32L273.23 50.68L275.35 48.19L277.58 45.84L279.92 43.65L282.37 41.61L284.9 39.72L287.53 37.99L290.23 36.4L293 34.96L295.84 33.68L298.74 32.55L301.68 31.56L304.67 30.73L307.7 30.05L310.75 29.52L313.83 29.15L316.92 28.92L320.01 28.84L323.11 28.92L326.2 29.15ZM579.94 550.71L320.01 89.29L60.09 550.71L579.94 550.71Z" id="k1aqctEjeu"></path></defs><g><g><use xlink:href="#b1i5bLLa3S" opacity="1" fill="#0a1f2d" fill-opacity="1"></use><g><use xlink:href="#b1i5bLLa3S" opacity="1" fill-opacity="0" stroke="#000000" stroke-width="1" stroke-opacity="0"></use></g></g><g><use xlink:href="#c25swhqwl7" opacity="1" fill="#0a1f2d" fill-opacity="1"></use><g><use xlink:href="#c25swhqwl7" opacity="1" fill-opacity="0" stroke="#000000" stroke-width="1" stroke-opacity="0"></use></g></g><g><use xlink:href="#k1aqctEjeu" opacity="1" fill="#e84042" fill-opacity="1"></use><g><use xlink:href="#k1aqctEjeu" opacity="1" fill-opacity="0" stroke="#000000" stroke-width="1" stroke-opacity="0"></use></g></g></g></svg>